<svg width="83" height="30" viewBox="0 0 83 30" fill="none" xmlns="http://www.w3.org/2000/svg">
<path d="M24.576 19.008C24.475 19.0177 24.3733 19.0008 24.2809 18.9589C24.1885 18.9169 24.1088 18.8515 24.0496 18.7692C23.9904 18.6868 23.9538 18.5903 23.9435 18.4894C23.9333 18.3885 23.9496 18.2866 23.991 18.194L26.083 11.979C26.235 11.531 26.474 11.533 26.618 11.984L28.583 18.19C28.6221 18.2842 28.6363 18.3869 28.6241 18.4882C28.6119 18.5894 28.5738 18.6858 28.5135 18.7681C28.4532 18.8503 28.3726 18.9156 28.2797 18.9576C28.1868 18.9996 28.0846 19.017 27.983 19.008H24.576ZM29.252 0.827009C29.1556 0.597578 28.9963 0.400078 28.7925 0.257291C28.5886 0.114504 28.3486 0.0322477 28.1 0.0200101H24.247C23.9529 0.00371902 23.6579 0.0218418 23.368 0.07401C23.356 0.10401 23.348 0.51601 23.348 0.98801V24.175C23.3485 24.4028 23.4392 24.621 23.6001 24.7822C23.7611 24.9433 23.9793 25.0342 24.207 25.035H29.875C30.1212 25.046 30.3585 25.1298 30.557 25.2758C30.7555 25.4218 30.9062 25.6233 30.99 25.855L31.841 28.589C31.9247 28.821 32.0753 29.0229 32.2738 29.1692C32.4722 29.3156 32.7097 29.3997 32.956 29.411H38.793C38.8931 29.4213 38.994 29.4047 39.0855 29.3629C39.1769 29.3211 39.2556 29.2556 39.3132 29.1732C39.3708 29.0908 39.4054 28.9945 39.4132 28.8942C39.4211 28.794 39.4021 28.6934 39.358 28.603L29.252 0.827009Z" fill="#1A1818"/>
<path d="M55.272 25.026C55.0116 25.0111 54.7578 24.9383 54.5291 24.8129C54.3004 24.6875 54.1026 24.5126 53.95 24.301L46.861 13.169C46.606 12.769 46.399 12.83 46.399 13.303V24.168C46.3985 24.3957 46.3078 24.6138 46.1469 24.7748C45.9859 24.9358 45.7677 25.0265 45.54 25.027H41.102C40.8745 25.0262 40.6564 24.9355 40.4955 24.7745C40.3346 24.6136 40.2438 24.3956 40.243 24.168V0.858999C40.2438 0.631422 40.3346 0.413392 40.4955 0.252469C40.6564 0.0915464 40.8745 0.000790665 41.102 0H44.765C45.0251 0.0151011 45.2786 0.0880155 45.5069 0.213433C45.7353 0.338851 45.9328 0.513615 46.085 0.725L53.176 11.859C53.43 12.259 53.637 12.197 53.637 11.725V0.858999C53.6378 0.631076 53.7289 0.412745 53.8902 0.251765C54.0516 0.0907857 54.2701 0.000263034 54.498 0H58.933C59.1607 0.000528212 59.3789 0.0911998 59.5399 0.252179C59.7008 0.413159 59.7915 0.631341 59.792 0.858999V24.168C59.7915 24.3957 59.7008 24.6138 59.5399 24.7748C59.3789 24.9358 59.1607 25.0265 58.933 25.027L55.272 25.026Z" fill="#1A1818"/>
<path d="M77.7159 25.042C77.4555 25.0272 77.2017 24.9543 76.9732 24.8287C76.7446 24.7031 76.547 24.5279 76.3949 24.316L69.3029 13.185C69.0499 12.785 68.8419 12.846 68.8419 13.32V24.182C68.8414 24.4096 68.7509 24.6277 68.5902 24.7888C68.4294 24.9499 68.2115 25.0409 67.9839 25.042H63.5499C63.3221 25.0412 63.1038 24.9503 62.9427 24.7892C62.7816 24.6281 62.6907 24.4098 62.6899 24.182V0.874991C62.6907 0.647241 62.7816 0.429059 62.9428 0.268108C63.1039 0.107157 63.3222 0.0165183 63.5499 0.0159912H67.2109C67.4709 0.030817 67.7243 0.103619 67.9526 0.229066C68.1808 0.354512 68.3781 0.529425 68.5299 0.740991L75.6179 11.875C75.8729 12.275 76.0809 12.213 76.0809 11.74V0.874991C76.0815 0.647333 76.1721 0.429149 76.3331 0.268169C76.4941 0.10719 76.7123 0.0165194 76.9399 0.0159912H81.3799C81.6074 0.0170432 81.8253 0.107882 81.9862 0.268748C82.147 0.429615 82.2379 0.647495 82.2389 0.874991V24.182C82.2381 24.4097 82.1474 24.6278 81.9865 24.7889C81.8256 24.95 81.6076 25.0409 81.3799 25.042H77.7159Z" fill="#1A1818"/>
<path d="M14.813 25.042C14.5556 25.0275 14.3053 24.9519 14.0829 24.8215C13.8605 24.691 13.6723 24.5096 13.534 24.292L8.611 15.528C8.57071 15.4356 8.50657 15.3556 8.42516 15.2962C8.34375 15.2368 8.248 15.2002 8.14774 15.19C8.04748 15.1798 7.94631 15.1965 7.85463 15.2383C7.76294 15.2801 7.68403 15.3456 7.626 15.428L6.644 16.557C6.30592 16.9895 6.10934 17.5157 6.081 18.064V24.182C6.08047 24.4099 5.9897 24.6283 5.82853 24.7895C5.66736 24.9507 5.44892 25.0415 5.221 25.042H0.859C0.631331 25.0409 0.413302 24.95 0.252407 24.7889C0.0915125 24.6278 0.000789004 24.4097 0 24.182V0.874991C0.000790665 0.647414 0.0915464 0.429382 0.252469 0.268459C0.413392 0.107537 0.631423 0.0167819 0.859 0.0159912H5.22C5.44775 0.0165183 5.66604 0.107157 5.82718 0.268108C5.98831 0.429059 6.07921 0.647241 6.08 0.874991V8.01399C6.08 8.48699 6.324 8.57399 6.622 8.20799L12.774 0.679991C13.1368 0.285328 13.6388 0.0472144 14.174 0.0159912H19.98C20.453 0.0159912 20.59 0.315991 20.285 0.671991L12.851 9.48199C12.6994 9.67962 12.6078 9.91663 12.5871 10.1648C12.5664 10.413 12.6173 10.6619 12.734 10.882L20.687 24.303C20.927 24.71 20.738 25.043 20.266 25.043L14.813 25.042Z" fill="#1A1818"/>
</svg>
